<svg id="visual" viewBox="0 0 900 600" width="900" height="600" xmlns="http://www.w3.org/2000/svg" xmlns:xlink="http://www.w3.org/1999/xlink" version="1.1"><rect x="0" y="0" width="900" height="600" fill="#FFFFFF"></rect><path d="M0 204L21.5 199.2C43 194.3 86 184.7 128.8 186.2C171.7 187.7 214.3 200.3 257.2 198.2C300 196 343 179 385.8 177.5C428.7 176 471.3 190 514.2 203C557 216 600 228 642.8 231.5C685.7 235 728.3 230 771.2 217C814 204 857 183 878.5 172.5L900 162L900 0L878.5 0C857 0 814 0 771.2 0C728.3 0 685.7 0 642.8 0C600 0 557 0 514.2 0C471.3 0 428.7 0 385.8 0C343 0 300 0 257.2 0C214.3 0 171.7 0 128.8 0C86 0 43 0 21.5 0L0 0Z" fill="#ffffff"></path><path d="M0 162L21.5 161.3C43 160.7 86 159.3 128.8 165.3C171.7 171.3 214.3 184.7 257.2 187C300 189.3 343 180.7 385.8 179.8C428.7 179 471.3 186 514.2 187.7C557 189.3 600 185.7 642.8 174.3C685.7 163 728.3 144 771.2 142C814 140 857 155 878.5 162.5L900 170L900 0L878.5 0C857 0 814 0 771.2 0C728.3 0 685.7 0 642.8 0C600 0 557 0 514.2 0C471.3 0 428.7 0 385.8 0C343 0 300 0 257.2 0C214.3 0 171.7 0 128.8 0C86 0 43 0 21.5 0L0 0Z" fill="#dddef7"></path><path d="M0 132L21.5 125.2C43 118.3 86 104.7 128.8 100.7C171.7 96.7 214.3 102.3 257.2 113.8C300 125.3 343 142.7 385.8 149.2C428.7 155.7 471.3 151.3 514.2 151.5C557 151.7 600 156.3 642.8 157.5C685.7 158.7 728.3 156.3 771.2 145.8C814 135.3 857 116.7 878.5 107.3L900 98L900 0L878.5 0C857 0 814 0 771.2 0C728.3 0 685.7 0 642.8 0C600 0 557 0 514.2 0C471.3 0 428.7 0 385.8 0C343 0 300 0 257.2 0C214.3 0 171.7 0 128.8 0C86 0 43 0 21.5 0L0 0Z" fill="#bbbdee"></path><path d="M0 116L21.5 107C43 98 86 80 128.8 70.3C171.7 60.7 214.3 59.3 257.2 60C300 60.7 343 63.3 385.8 63.8C428.7 64.3 471.3 62.7 514.2 68.3C557 74 600 87 642.8 96.2C685.7 105.3 728.3 110.7 771.2 113C814 115.3 857 114.7 878.5 114.3L900 114L900 0L878.5 0C857 0 814 0 771.2 0C728.3 0 685.7 0 642.8 0C600 0 557 0 514.2 0C471.3 0 428.7 0 385.8 0C343 0 300 0 257.2 0C214.3 0 171.7 0 128.8 0C86 0 43 0 21.5 0L0 0Z" fill="#979de5"></path><path d="M0 51L21.5 51.8C43 52.7 86 54.3 128.8 54.7C171.7 55 214.3 54 257.2 52.8C300 51.7 343 50.3 385.8 47.3C428.7 44.3 471.3 39.7 514.2 43.3C557 47 600 59 642.8 63.2C685.7 67.3 728.3 63.7 771.2 63.5C814 63.3 857 66.7 878.5 68.3L900 70L900 0L878.5 0C857 0 814 0 771.2 0C728.3 0 685.7 0 642.8 0C600 0 557 0 514.2 0C471.3 0 428.7 0 385.8 0C343 0 300 0 257.2 0C214.3 0 171.7 0 128.8 0C86 0 43 0 21.5 0L0 0Z" fill="#6e7fdc"></path></svg>